# xmcd
# 
# Track frame offsets:
#     182
#     26637
#     42215
#     68475
#     80755
#     100940
#     113492
#     131702
#     149192
#     170270
# 
# Disc length: 2483
# 
# Revision: 3
# Processed by: cddbd v1.5.2PL0 Copyright (c) Steve Scherf et al.
# Submitted via: fre:ac v1.0.27
# 
DISCID=8709b10a
DTITLE=Calvin Russell - Soldier
DYEAR=1992
DGENRE=Blues
TTITLE0=Soldier
TTITLE1=Stranger
TTITLE2=Characters
TTITLE3=I Dreamed I Saw
TTITLE4=Rats and Roaches
TTITLE5=Down in Texas
TTITLE6=Shackles And Chains
TTITLE7=This Could be The Day
TTITLE8=This is Your World (Memphis Mix)
TTITLE9=White Rails
EXTD=Added the year of recording
EXTT0=
EXTT1=
EXTT2=
EXTT3=
EXTT4=
EXTT5=
EXTT6=
EXTT7=
EXTT8=
EXTT9=
PLAYORDER=
